<?xml version="1.0" encoding="utf-8"?>
<!-- Generator: Adobe Illustrator 17.1.0, SVG Export Plug-In . SVG Version: 6.00 Build 0)  -->
<!DOCTYPE svg PUBLIC "-//W3C//DTD SVG 1.1//EN" "http://www.w3.org/Graphics/SVG/1.1/DTD/svg11.dtd">
<svg version="1.1" xmlns="http://www.w3.org/2000/svg" xmlns:xlink="http://www.w3.org/1999/xlink" x="0px" y="0px"
	 viewBox="0 0 64 64" enable-background="new 0 0 64 64" xml:space="preserve">
<g id="Imagenes">
</g>
<g id="Layer_2">
	<path d="M10,20.062c0,0,6.976-1.303,14-2.051v-7.83c-5.948,0.894-10.505,2.525-12.484,3.322C10.139,17.019,10,20.062,10,20.062z"/>
	<path d="M39.754,3.136C39.904,3.583,40,4.043,40,4.5v3.643c4.983,0.711,9.025,1.934,11.547,2.848
		C48.102,5.327,41.894,3.583,39.754,3.136z"/>
	<path d="M40,18.026c6.993,0.777,13.917,2.141,13.917,2.141c0-2.527-0.416-4.681-1.099-6.528c-1.747-0.73-6.484-2.519-12.817-3.466
		V18.026z"/>
	<path d="M24,4.5c0-0.441,0.091-0.885,0.232-1.319c-5.988,0.801-9.461,4.182-11.474,7.712C15.297,9.995,19.211,8.843,24,8.154V4.5z"
		/>
	<path d="M10,46.75C10,60.583,25,60,25,60s5.917,0,16.25,0C54,60,54,47,54,47V23.375c0,0-4.979-1.899-14.577-2.621
		C38.725,22.025,37.404,23,35.5,23h-6.938c-1.724,0-3.113-0.972-3.888-2.243c-9.769,0.768-14.841,2.868-14.841,2.868
		S10,32.917,10,46.75z M37.998,55C35.81,55,25,55,25,55s-0.969,0-2-1.969c0,0,1.786-4.031,4-4.031c1.375,0,4.023,2.062,5.023,2.062
		S35.531,49,36.969,49c1.25,0,3.625,2.322,4.062,4.031C41.031,53.031,40.185,55,37.998,55z M42,51.062
		C41,49.438,38.781,47,36.969,47s-3.722,1.969-4.972,1.969S29.625,47.094,27,47.094s-4.969,3.938-4.969,3.938s-1.016,0.031-1.016-2
		c0-1.969,3.297-5,5.984-5s3.871,2,4.996,2s2.91-2,5.035-2s6,3.031,6,4.969C43.031,51.062,42,51.062,42,51.062z M45.016,27.878
		c2.779,0,5.016,1.41,5.016,3.154c0,1.743-2.237,3-5.016,3S40,32.774,40,31.031C40,29.288,42.237,27.878,45.016,27.878z M29,33.062
		c0.918-1.247,1.031-2.108,3.031-2.108c1.875,0,2.537,1.209,3,2.014c0.485,0.844,3,4.062,3.938,5.031
		c0.999,1.032,0.746,3.062-0.906,3.062c-2.125,0-1.554-2.014-2.492-2.014s-0.94,1.949-3.534,1.949s-2.477-1.972-3.477-1.972
		s-1.092,2.005-2.654,2.005S24,39.031,25,38C25.938,37.033,28.079,34.313,29,33.062z M20.016,27.878c2.779,0,5.016,1.41,5.016,3.154
		c0,1.743-2.237,3-5.016,3S15,32.774,15,31.031C15,29.288,17.237,27.878,20.016,27.878z"/>
	<path d="M28.562,21H35.5c0.588,0,1.053-0.159,1.425-0.4C37.66,20.122,38,19.296,38,18.562v-0.741V9.91V7.894V4.5
		c0-0.494-0.143-1.041-0.431-1.5c-0.356-0.568-0.939-1-1.803-1H28.5c-0.872,0-1.54,0.44-1.968,1.016C26.193,3.472,26,4.012,26,4.5
		v3.403v2.016v7.896V18.5c0,0.741,0.458,1.604,1.226,2.097C27.603,20.84,28.048,21,28.562,21z"/>
</g>
</svg>
