<?xml version="1.0" encoding="utf-8"?>
<!-- Generator: Adobe Illustrator 17.1.0, SVG Export Plug-In . SVG Version: 6.00 Build 0)  -->
<!DOCTYPE svg PUBLIC "-//W3C//DTD SVG 1.1//EN" "http://www.w3.org/Graphics/SVG/1.1/DTD/svg11.dtd">
<svg version="1.1" xmlns="http://www.w3.org/2000/svg" xmlns:xlink="http://www.w3.org/1999/xlink" x="0px" y="0px"
	 viewBox="0 0 64 64" enable-background="new 0 0 64 64" xml:space="preserve">
<g id="Imagenes">
</g>
<g id="Layer_2">
	<path d="M17.5,30c-2.485,0-4.5,2.015-4.5,4.5s2.015,4.5,4.5,4.5H22v2h3v-2v-9v-2v-9v-2V8V5h-3v3h-4.5c-2.485,0-4.5,2.015-4.5,4.5
		s2.015,4.5,4.5,4.5H22v2h-4.5c-2.485,0-4.5,2.015-4.5,4.5s2.015,4.5,4.5,4.5H22v2H17.5z M22,36h-4.5c-0.827,0-1.5-0.673-1.5-1.5
		s0.673-1.5,1.5-1.5H22V36z M17.5,14c-0.827,0-1.5-0.673-1.5-1.5s0.673-1.5,1.5-1.5H22v3H17.5z M17.5,25c-0.827,0-1.5-0.673-1.5-1.5
		s0.673-1.5,1.5-1.5H22v3H17.5z"/>
	<path d="M36,5v3v9v2v9v2v9v2h3v-2h4.5c2.485,0,4.5-2.015,4.5-4.5S45.985,30,43.5,30H39v-2h4.5c2.485,0,4.5-2.015,4.5-4.5
		S45.985,19,43.5,19H39v-2h4.5c2.485,0,4.5-2.015,4.5-4.5S45.985,8,43.5,8H39V5H36z M43.5,33c0.827,0,1.5,0.673,1.5,1.5
		S44.327,36,43.5,36H39v-3H43.5z M43.5,22c0.827,0,1.5,0.673,1.5,1.5S44.327,25,43.5,25H39v-3H43.5z M43.5,11
		c0.827,0,1.5,0.673,1.5,1.5S44.327,14,43.5,14H39v-3H43.5z"/>
	<path d="M34,4.5C34,2.567,32.433,1,30.5,1S27,2.567,27,4.5V62h7V4.5z"/>
</g>
</svg>
